<svg width="22" height="20" viewBox="0 0 22 20" fill="none" xmlns="http://www.w3.org/2000/svg">
<path fill-rule="evenodd" clip-rule="evenodd" d="M16.5 18C16.7761 18 17 17.7761 17 17.5V8.37818C17 8.2373 16.9406 8.10296 16.8363 8.00819L11.3363 3.00869C11.1456 2.83534 10.8544 2.83534 10.6637 3.00869L5.16368 8.00819C5.05943 8.10295 5 8.2373 5 8.37818V17.5C5 17.7761 5.22386 18 5.5 18H16.5ZM18 20H4C3.73478 20 3.48043 19.8946 3.29289 19.7071C3.10536 19.5196 3 19.2652 3 19V10.5C3 10.2238 2.77614 9.99998 2.5 9.99998H1.29332C0.836304 9.99998 0.61882 9.43743 0.956989 9.13001L10.327 0.611981C10.5111 0.444459 10.7511 0.351624 11 0.351624C11.2489 0.351624 11.4889 0.444459 11.673 0.611981L21.043 9.13001C21.3812 9.43743 21.1637 9.99998 20.7067 9.99998H19.5C19.2239 9.99998 19 10.2238 19 10.5V19C19 19.2652 18.8946 19.5196 18.7071 19.7071C18.5196 19.8946 18.2652 20 18 20Z" fill="url(#paint0_linear_64_18)"/>
<path d="M7 13.5C7 13.2238 7.2254 12.9957 7.49771 13.0415C8.10873 13.1443 8.67742 13.4348 9.12132 13.8787C9.56522 14.3226 9.85564 14.8912 9.95844 15.5023C10.0043 15.7746 9.77614 16 9.5 16H7.5C7.22386 16 7 15.7761 7 15.5V13.5Z" fill="url(#paint1_linear_64_18)"/>
<path d="M7 9.49998C7 9.22384 7.22417 8.99812 7.49961 9.01782C9.17352 9.13753 10.7553 9.85574 11.9497 11.0502C13.1442 12.2447 13.8625 13.8265 13.9822 15.5004C14.0019 15.7758 13.7761 16 13.5 16H12.5C12.2239 16 12.0026 15.7756 11.975 15.5008C11.8604 14.358 11.3548 13.2837 10.5355 12.4644C9.71626 11.6452 8.64194 11.1396 7.49919 11.0249C7.22442 10.9974 7 10.7761 7 10.5V9.49998Z" fill="url(#paint2_linear_64_18)"/>
<defs>
<linearGradient id="paint0_linear_64_18" x1="0" y1="0.351624" x2="31.5246" y2="20.4463" gradientUnits="userSpaceOnUse">
<stop stop-color="#FF3A44"/>
<stop offset="1" stop-color="#FF8086"/>
</linearGradient>
<linearGradient id="paint1_linear_64_18" x1="0" y1="0.351624" x2="31.5246" y2="20.4463" gradientUnits="userSpaceOnUse">
<stop stop-color="#FF3A44"/>
<stop offset="1" stop-color="#FF8086"/>
</linearGradient>
<linearGradient id="paint2_linear_64_18" x1="0" y1="0.351624" x2="31.5246" y2="20.4463" gradientUnits="userSpaceOnUse">
<stop stop-color="#FF3A44"/>
<stop offset="1" stop-color="#FF8086"/>
</linearGradient>
</defs>
</svg>
